<?xml version="1.0" encoding="UTF-8" standalone="no" ?>
<!DOCTYPE svg PUBLIC "-//W3C//DTD SVG 1.1//EN" "http://www.w3.org/Graphics/SVG/1.1/DTD/svg11.dtd">
<svg xmlns="http://www.w3.org/2000/svg" xmlns:xlink="http://www.w3.org/1999/xlink" version="1.1" width="1080" height="1080" viewBox="0 0 1080 1080" xml:space="preserve">
<desc>Created with Fabric.js 5.2.4</desc>
<defs>
</defs>
<g transform="matrix(1 0 0 1 540 540)" id="260983e2-ef43-436a-a61f-156f90fed59c"  >
<rect style="stroke: none; stroke-width: 1; stroke-dasharray: none; stroke-linecap: butt; stroke-dashoffset: 0; stroke-linejoin: miter; stroke-miterlimit: 4; fill: rgb(255,255,255); fill-rule: nonzero; opacity: 1; visibility: hidden;" vector-effect="non-scaling-stroke"  x="-540" y="-540" rx="0" ry="0" width="1080" height="1080" />
</g>
<g transform="matrix(1 0 0 1 540 540)" id="b300034e-e3c3-4d88-9c9c-2bdd365a6d21"  >
</g>
<g transform="matrix(1.96 0 0 1.96 540 540)"  >
<g style=""   >
		<g transform="matrix(1 0 0 1 -146.45 85.94)"  >
<path style="stroke: none; stroke-width: 1; stroke-dasharray: none; stroke-linecap: butt; stroke-dashoffset: 0; stroke-linejoin: miter; stroke-miterlimit: 10; fill: rgb(150,60,189); fill-rule: nonzero; opacity: 1;" vector-effect="non-scaling-stroke"  transform=" translate(-128.55, -320.94)" d="M 152.10314 337.38306 C 152.10314 340.28221 151.61995 342.74347 150.65356 344.76684 C 149.68718 346.79021 148.4943 348.45118 147.07492 349.74976 C 145.65554 351.04834 144.14557 352.04492 142.545 352.73951 C 140.94442999999998 353.4341 139.49484999999999 353.94749 138.19627 354.27968 C 136.89769 354.61187 135.90111 354.80816999999996 135.20652 354.86857 C 134.51193 354.92897 134.37603000000001 354.95917 134.79883 354.95917 L 104.99192000000001 354.95917 L 104.99192000000001 351.15403 L 133.53045 351.15403 C 136.3088 351.03323 138.78516 350.45944 140.95953 349.43266 C 141.86551 349.00987 142.7715 348.46628 143.67748 347.80189 C 144.58346 347.1375 145.38375 346.32211 146.07834 345.35573 C 146.77293 344.38935 147.33162 343.25686 147.75441 341.95829 C 148.1772 340.65970999999996 148.3886 339.13464 148.3886 337.38307 C 148.3886 335.6919 148.1772 334.18192 147.75441 332.85314999999997 C 147.33162000000002 331.52437 146.77293 330.36168999999995 146.07834 329.36510999999996 C 145.38375 328.36852999999996 144.58346 327.53803999999997 143.67748 326.87364999999994 C 142.7715 326.2092599999999 141.86551 325.6656699999999 140.95953 325.24287999999996 C 138.78517 324.2161 136.30881 323.64230999999995 133.53045 323.52151 L 108.79706 323.52151 L 104.99192000000001 323.52151 L 104.99192000000001 319.71637 L 128.54753 319.71637 C 131.08428999999998 319.41438 133.34924999999998 318.71979 135.34242 317.63259999999997 C 136.18801 317.14941 137.03359 316.56051999999994 137.87918 315.86593 C 138.72476999999998 315.17134 139.46464999999998 314.32576 140.09884 313.32917 C 140.73302999999999 312.33259 141.24642 311.16990999999996 141.63900999999998 309.84112999999996 C 142.0316 308.51234999999997 142.22789999999998 307.00237999999996 142.22789999999998 305.31120999999996 C 142.22789999999998 303.43883999999997 142.03159999999997 301.80807 141.63900999999998 300.41889 C 141.24641999999997 299.02970999999997 140.73302999999999 297.82173 140.09884 296.79495 C 139.46465 295.76817 138.72476 294.90747999999996 137.87918 294.21288999999996 C 137.03359 293.51829999999995 136.18801 292.92940999999996 135.34242 292.44622 C 133.34925 291.35904 131.08429 290.78524999999996 128.54753 290.72485 L 104.99192 290.72485 L 104.99192 286.91971 L 128.54753 286.91971 C 131.74868 287.10091 134.61763 287.85589 137.15439 289.18467 C 138.24157 289.72826 139.29855 290.45304999999996 140.32534 291.35902999999996 C 141.35212 292.26500999999996 142.27321 293.36729999999994 143.08859 294.66587999999996 C 143.90398000000002 295.96446 144.56837000000002 297.48952999999995 145.08176 299.24109999999996 C 145.59515 300.99267 145.85185 303.01604 145.85185 305.3112 C 145.85185 308.27074999999996 145.38376000000002 310.71691 144.44757 312.64968 C 143.51139 314.58245 142.4695 316.12262 141.32192 317.2702 C 139.99314 318.59898 138.51337 319.62576 136.88259 320.35055 C 139.72134 320.77334 142.25809999999998 321.67933 144.49286 323.0685 C 145.45924 323.67249 146.39543 324.39727999999997 147.30141 325.24285999999995 C 148.20739 326.08844999999997 149.02278 327.08502999999996 149.74757 328.23260999999997 C 150.47236 329.38018999999997 151.04614999999998 330.70896999999997 151.46894 332.21894 C 151.89173 333.72891 152.10313 335.45029 152.10313 337.38304999999997 z" stroke-linecap="round" />
</g>
		<g transform="matrix(1 0 0 1 -79.36 85.94)"  >
<path style="stroke: none; stroke-width: 1; stroke-dasharray: none; stroke-linecap: butt; stroke-dashoffset: 0; stroke-linejoin: miter; stroke-miterlimit: 10; fill: rgb(150,60,189); fill-rule: nonzero; opacity: 1;" vector-effect="non-scaling-stroke"  transform=" translate(-195.64, -320.94)" d="M 222.67937 305.31119 C 222.67937 307.60635 222.40757 309.61462 221.86398 311.33599000000004 C 221.32039 313.05736 220.5956 314.56734000000006 219.68962 315.86591000000004 C 218.78364 317.16449000000006 217.75685 318.25167000000005 216.60926999999998 319.12746000000004 C 215.46168999999998 320.00325000000004 214.31410999999997 320.71293000000003 213.16653 321.25652 C 210.38818 322.5853 207.24743 323.34029000000004 203.74429 323.52148 L 220.23322000000002 354.95916 L 216.15629 354.95916 L 199.66736 323.52148 L 168.59208 323.52148 L 168.59208 319.71634 L 205.10327 319.71634 C 207.70043 319.59554 209.99559000000002 318.99155 211.98876 317.90437000000003 C 212.83435 317.48158 213.67993 316.92289000000005 214.52552 316.22830000000005 C 215.37111 315.53371000000004 216.11099 314.67303000000004 216.74518 313.64624000000003 C 217.37937 312.61946000000006 217.89276 311.42658000000006 218.28535 310.0676 C 218.67794 308.70862000000005 218.87424 307.12315 218.87424 305.31118000000004 C 218.87424 303.49921000000006 218.67793999999998 301.89864000000006 218.28535 300.50946000000005 C 217.89275999999998 299.12028000000004 217.37937 297.9123000000001 216.74518 296.88552000000004 C 216.11099000000002 295.85874000000007 215.3711 294.99805000000003 214.52552 294.30346000000003 C 213.67993 293.60887 212.83435 293.01998000000003 211.98876 292.53679000000005 C 209.99559000000002 291.44961000000006 207.70043 290.84562000000005 205.10327 290.7248200000001 L 168.59208 290.7248200000001 L 168.59208 286.9196800000001 L 205.10327 286.9196800000001 C 208.36482 287.1008800000001 211.29417 287.85586000000006 213.89132 289.18464000000006 C 214.9785 289.72823000000005 216.05058 290.45302000000004 217.10757 291.35900000000004 C 218.16455000000002 292.26498000000004 219.10074 293.36727 219.91612 294.66585000000003 C 220.73151000000001 295.96443000000005 221.3959 297.4895 221.90929 299.24107000000004 C 222.42267999999999 300.99264000000005 222.67938 303.01601000000005 222.67938 305.31117000000006 z" stroke-linecap="round" />
</g>
		<g transform="matrix(1 0 0 1 -6.02 85.94)"  >
<path style="stroke: none; stroke-width: 1; stroke-dasharray: none; stroke-linecap: butt; stroke-dashoffset: 0; stroke-linejoin: miter; stroke-miterlimit: 10; fill: rgb(150,60,189); fill-rule: nonzero; opacity: 1;" vector-effect="non-scaling-stroke"  transform=" translate(-268.98, -320.94)" d="M 268.9752 286.9197 L 302.13424999999995 354.95917 L 298.51030999999995 354.95917 L 268.9752 294.62057 L 239.44008999999997 354.95917 L 235.81614999999996 354.95917 z" stroke-linecap="round" />
</g>
		<g transform="matrix(1 0 0 1 68.31 85.98)"  >
<path style="stroke: none; stroke-width: 1; stroke-dasharray: none; stroke-linecap: butt; stroke-dashoffset: 0; stroke-linejoin: miter; stroke-miterlimit: 10; fill: rgb(150,60,189); fill-rule: nonzero; opacity: 1;" vector-effect="non-scaling-stroke"  transform=" translate(-343.31, -320.98)" d="M 314.90864 354.95917 L 314.90864 287.0103 L 367.72756 344.54033999999996 L 367.72756 287.0103 L 371.71389 287.0103 L 371.71389 354.95917 L 318.71377 296.70434 L 318.71377 354.95917 z" stroke-linecap="round" />
</g>
		<g transform="matrix(1 0 0 1 142.78 85.95)"  >
<path style="stroke: none; stroke-width: 1; stroke-dasharray: none; stroke-linecap: butt; stroke-dashoffset: 0; stroke-linejoin: miter; stroke-miterlimit: 10; fill: rgb(150,60,189); fill-rule: nonzero; opacity: 1;" vector-effect="non-scaling-stroke"  transform=" translate(-417.78, -320.95)" d="M 411.66783 286.9197 C 416.43935 286.7989 420.86357999999996 287.68978999999996 424.94050999999996 289.59236 C 429.01743999999997 291.49493 432.53567999999996 294.06189 435.49522999999994 297.29323 C 438.4547799999999 300.52458 440.78013999999996 304.25421 442.47130999999996 308.48214 C 444.16247999999996 312.71007000000003 445.00807 317.02860000000004 445.00807 321.43772 C 445.00807 325.60525 444.11717999999996 329.72748 442.33540999999997 333.80441 C 440.55364 337.88134 438.13768 341.53548 435.08752999999996 344.76683 C 432.03738 347.99818000000005 428.48893999999996 350.56513 424.44220999999993 352.46770000000004 C 420.3954799999999 354.37027000000006 416.1373499999999 355.20075 411.66781999999995 354.95916000000005 L 390.55836999999997 354.95916000000005 L 390.55836999999997 351.15402000000006 L 411.57721999999995 351.15402000000006 C 415.74474999999995 351.15402000000006 419.62539 350.2933300000001 423.21912999999995 348.57196000000005 C 426.81287 346.85059000000007 429.95361999999994 344.60073000000006 432.64136999999994 341.82237000000003 C 435.32912999999996 339.04402000000005 437.42798999999997 335.87307000000004 438.93796999999995 332.30953000000005 C 440.44793999999996 328.74599000000006 441.2029299999999 325.12205000000006 441.2029299999999 321.43771000000004 C 441.2029299999999 317.45138000000003 440.4630399999999 313.61604000000005 438.98326999999995 309.93170000000003 C 437.50348999999994 306.24736 435.44992999999994 302.97072000000003 432.8225699999999 300.10176 C 430.1952099999999 297.23281000000003 427.06956999999994 294.95275000000004 423.44562999999994 293.26157 C 419.82168999999993 291.5704 415.86555999999996 290.72481 411.57722999999993 290.72481 L 390.55837999999994 290.72481 L 390.55837999999994 286.91967 z" stroke-linecap="round" />
</g>
		<g transform="matrix(1 0 0 1 0 -49.7)"  >
<path style="stroke: none; stroke-width: 1; stroke-dasharray: none; stroke-linecap: butt; stroke-dashoffset: 0; stroke-linejoin: miter; stroke-miterlimit: 10; fill: rgb(150,60,189); fill-opacity: 0.6; fill-rule: evenodd; opacity: 1;" vector-effect="non-scaling-stroke"  transform=" translate(-275, -185.3)" d="M 247.63392 120.52602 C 239.22323 124.08336 231.77487 129.10505 225.28885 135.59107 C 218.80283 142.07709 213.78115 149.52578 210.22379999999998 157.93714 C 206.53978999999998 166.64617 204.69778 175.76819 204.69778 185.30222 C 204.69778 194.83625 206.53978999999998 203.95828 210.22379999999998 212.66830000000002 C 213.78080999999997 221.07933000000003 218.80282999999997 228.52835000000002 225.28884999999997 235.01337 C 231.77486999999996 241.49939 239.22288999999998 246.5214 247.63391999999996 250.07942 C 256.34394999999995 253.76343 265.46596999999997 255.60544 274.99999999999994 255.60544 C 284.5340299999999 255.60544 293.65605999999997 253.76343 302.36607999999995 250.07942 C 310.77710999999994 246.52141 318.22513 241.49939 324.71115 235.01337 C 331.19716999999997 228.52835000000002 336.21918 221.07933 339.77619999999996 212.66830000000002 C 343.46020999999996 203.95827000000003 345.30222 194.83625 345.30222 185.30222 C 345.30222 175.76819 343.46020999999996 166.6465 339.77619999999996 157.93714 C 336.21918999999997 149.52511 331.19716999999997 142.07709 324.71115 135.59107 C 318.22513 129.10505 310.77711 124.08304 302.36607999999995 120.52602 C 293.65604999999994 116.84201 284.53403 115 274.99999999999994 115 C 265.46596999999997 115 256.3439399999999 116.84201 247.63391999999993 120.52602 z M 249.74092 245.09839 C 241.9769 241.81438 235.10088 237.17837 229.11285999999998 231.18935 C 223.12383999999997 225.20132999999998 218.48782999999997 218.32531 215.20381999999998 210.56128999999999 C 211.80480999999997 202.52526999999998 210.1058 194.10523999999998 210.1058 185.30220999999997 C 210.1058 176.49917999999997 211.80480999999997 168.08015999999998 215.20381999999998 160.04312999999996 C 218.48782999999997 152.28010999999995 223.12383999999997 145.40408999999997 229.11285999999998 139.41506999999996 C 235.10153999999997 133.42638999999997 241.97757 128.79003999999995 249.74092 125.50602999999995 C 257.77693999999997 122.10701999999995 266.19696999999996 120.40800999999995 275 120.40800999999995 C 283.80303 120.40800999999995 292.22305 122.10701999999995 300.25908 125.50602999999995 C 308.0231 128.79003999999995 314.89912 133.42604999999995 320.88714 139.41506999999996 C 326.87615999999997 145.40408999999997 331.51216999999997 152.28010999999995 334.79618 160.04312999999996 C 338.19552 168.07981999999996 339.8952 176.49950999999996 339.8952 185.30220999999997 C 339.8952 194.10556999999997 338.19552999999996 202.52525999999997 334.79618 210.56128999999999 C 331.51216999999997 218.32530999999997 326.87615999999997 225.20132999999998 320.88714 231.18935 C 314.89912 237.17837 308.0231 241.81438 300.25908 245.09839 C 292.22306 248.4974 283.80303 250.19641 275 250.19641 C 266.19697 250.19641 257.77695 248.4974 249.74092 245.09839 z" stroke-linecap="round" />
</g>
		<g transform="matrix(1 0 0 1 8.58 -49.42)"  >
<path style="stroke: none; stroke-width: 1; stroke-dasharray: none; stroke-linecap: butt; stroke-dashoffset: 0; stroke-linejoin: miter; stroke-miterlimit: 10; fill: rgb(150,60,189); fill-rule: evenodd; opacity: 1;" vector-effect="non-scaling-stroke"  transform=" translate(-283.58, -185.58)" d="M 272.19599 222.36733 C 272.19599 229.10435 263.53396 228.78335 263.53396 222.36733 L 263.53396 178.8982 C 263.53396 176.33119 264.81795999999997 174.24619 267.38397 174.24619 C 269.13498 174.24619 270.81098 174.21319000000003 272.44799 174.18019 C 278.01101 174.07019 283.12602 173.96919 289.19904 175.20819 C 305.72109 178.5772 316.30712000000005 191.40924 316.30712000000005 206.00628 C 316.30712000000005 232.63336 301.87108000000006 243.70039 259.84495000000004 241.45539 C 250.85492000000005 240.19339 250.85992000000005 237.69038 250.86292000000003 236.38737 C 250.86292000000003 236.36537 250.86292000000003 236.34337 250.86292000000003 236.32237 L 250.86292000000003 134.62606 C 250.86292000000003 129.49304 256.47694 129.65404 261.28895000000006 129.49304 C 307.16409000000004 127.88904000000001 299.62507000000005 155.47912000000002 293.69005000000004 166.86715 C 291.12404000000004 171.67916 282.78302 169.11316000000002 284.86802000000006 163.98014 C 292.7280400000001 154.03511 291.92604000000006 134.46605 259.20394000000005 138.79706000000002 L 259.20394000000005 231.99134000000004 C 289.19903000000005 237.60536000000005 307.96609000000007 226.05632000000003 307.96609000000007 206.00626000000003 C 307.96609000000007 190.44721000000004 287.59503000000007 182.42619000000002 273.63999000000007 182.42619000000002 L 272.19599000000005 182.42619000000002 z" stroke-linecap="round" />
</g>
</g>
</g>
</svg>