<?xml version="1.0" encoding="utf-8"?>
<!-- Generator: Adobe Illustrator 26.3.1, SVG Export Plug-In . SVG Version: 6.00 Build 0)  -->
<svg version="1.1" id="Layer_1" xmlns="http://www.w3.org/2000/svg" xmlns:xlink="http://www.w3.org/1999/xlink" x="0px" y="0px"
	 viewBox="0 0 1076.9 305.5" style="enable-background:new 0 0 1076.9 305.5;" xml:space="preserve">
<style type="text/css">
	.st0{display:none;fill:#FFFFFF;}
	.st1{fill:#963CBD;}
	.st2{fill-rule:evenodd;clip-rule:evenodd;fill:#963CBD;fill-opacity:0.6;}
	.st3{fill-rule:evenodd;clip-rule:evenodd;fill:#963CBD;}
</style>
<g id="_x32_60983e2-ef43-436a-a61f-156f90fed59c" transform="matrix(1 0 0 1 540 540)">
	<rect x="-343.8" y="-1091.6" vector-effect="non-scaling-stroke" class="st0" width="1080" height="1080"/>
</g>
<g id="b300034e-e3c3-4d88-9c9c-2bdd365a6d21" transform="matrix(1 0 0 1 540 540)">
</g>
<g transform="matrix(1.96 0 0 1.96 540 540)">
	<g>
		<g transform="matrix(1 0 0 1 -146.45 85.94)">
			<path vector-effect="non-scaling-stroke" class="st1" d="M126.7-265c0,2.9-0.5,5.4-1.4,7.4c-1,2-2.2,3.7-3.6,5
				c-1.4,1.3-2.9,2.3-4.5,3c-1.6,0.7-3.1,1.2-4.3,1.5c-1.3,0.3-2.3,0.5-3,0.6c-0.7,0.1-0.8,0.1-0.4,0.1H79.6v-3.8h28.5
				c2.8-0.1,5.3-0.7,7.4-1.7c0.9-0.4,1.8-1,2.7-1.6c0.9-0.7,1.7-1.5,2.4-2.4c0.7-1,1.3-2.1,1.7-3.4s0.6-2.8,0.6-4.6
				c0-1.7-0.2-3.2-0.6-4.5s-1-2.5-1.7-3.5s-1.5-1.8-2.4-2.5c-0.9-0.7-1.8-1.2-2.7-1.6c-2.2-1-4.7-1.6-7.4-1.7H83.4h-3.8v-3.8h23.6
				c2.5-0.3,4.8-1,6.8-2.1c0.8-0.5,1.7-1.1,2.5-1.8c0.8-0.7,1.6-1.5,2.2-2.5c0.6-1,1.1-2.2,1.5-3.5c0.4-1.3,0.6-2.8,0.6-4.5
				c0-1.9-0.2-3.5-0.6-4.9c-0.4-1.4-0.9-2.6-1.5-3.6c-0.6-1-1.4-1.9-2.2-2.6c-0.8-0.7-1.7-1.3-2.5-1.8c-2-1.1-4.3-1.7-6.8-1.7H79.6
				v-3.8h23.6c3.2,0.2,6.1,0.9,8.6,2.3c1.1,0.5,2.1,1.3,3.2,2.2c1,0.9,1.9,2,2.8,3.3c0.8,1.3,1.5,2.8,2,4.6c0.5,1.8,0.8,3.8,0.8,6.1
				c0,3-0.5,5.4-1.4,7.3s-2,3.5-3.1,4.6c-1.3,1.3-2.8,2.4-4.4,3.1c2.8,0.4,5.4,1.3,7.6,2.7c1,0.6,1.9,1.3,2.8,2.2
				c0.9,0.8,1.7,1.8,2.4,3s1.3,2.5,1.7,4C126.5-268.7,126.7-266.9,126.7-265z"/>
		</g>
		<g transform="matrix(1 0 0 1 -79.36 85.94)">
			<path vector-effect="non-scaling-stroke" class="st1" d="M127.1-297.1c0,2.3-0.3,4.3-0.8,6s-1.3,3.2-2.2,4.5
				c-0.9,1.3-1.9,2.4-3.1,3.3c-1.1,0.9-2.3,1.6-3.4,2.1c-2.8,1.3-5.9,2.1-9.4,2.3l16.5,31.4h-4.1l-16.5-31.4H73v-3.8h36.5
				c2.6-0.1,4.9-0.7,6.9-1.8c0.8-0.4,1.7-1,2.5-1.7c0.8-0.7,1.6-1.6,2.2-2.6s1.1-2.2,1.5-3.6c0.4-1.4,0.6-2.9,0.6-4.8
				c0-1.8-0.2-3.4-0.6-4.8c-0.4-1.4-0.9-2.6-1.5-3.6c-0.6-1-1.4-1.9-2.2-2.6c-0.8-0.7-1.7-1.3-2.5-1.8c-2-1.1-4.3-1.7-6.9-1.8H73
				v-3.8h36.5c3.3,0.2,6.2,0.9,8.8,2.3c1.1,0.5,2.2,1.3,3.2,2.2c1.1,0.9,2,2,2.8,3.3c0.8,1.3,1.5,2.8,2,4.6
				C126.9-301.4,127.1-299.4,127.1-297.1L127.1-297.1z"/>
		</g>
		<g transform="matrix(1 0 0 1 -6.02 85.94)">
			<path vector-effect="non-scaling-stroke" class="st1" d="M100.1-315.5l33.2,68h-3.6l-29.5-60.3l-29.5,60.3h-3.6L100.1-315.5z"/>
		</g>
		<g transform="matrix(1 0 0 1 68.31 85.98)">
			<path vector-effect="non-scaling-stroke" class="st1" d="M71.7-247.5v-67.9l52.8,57.5v-57.5h4v67.9l-53-58.3v58.3H71.7z"/>
		</g>
		<g transform="matrix(1 0 0 1 142.78 85.95)">
			<path vector-effect="non-scaling-stroke" class="st1" d="M94-315.5c4.8-0.1,9.2,0.8,13.3,2.7c4.1,1.9,7.6,4.5,10.6,7.7
				c3,3.2,5.3,7,7,11.2s2.5,8.5,2.5,13c0,4.2-0.9,8.3-2.7,12.4s-4.2,7.7-7.2,11c-3.1,3.2-6.6,5.8-10.6,7.7c-4,1.9-8.3,2.7-12.8,2.5
				H72.9v-3.8h21c4.2,0,8-0.9,11.6-2.6c3.6-1.7,6.7-4,9.4-6.7c2.7-2.8,4.8-5.9,6.3-9.5s2.3-7.2,2.3-10.9c0-4-0.7-7.8-2.2-11.5
				c-1.5-3.7-3.5-7-6.2-9.8c-2.6-2.9-5.8-5.1-9.4-6.8c-3.6-1.7-7.6-2.5-11.9-2.5h-21v-3.8L94-315.5z"/>
		</g>
		<g transform="matrix(1 0 0 1 0 -49.7)">
			<path vector-effect="non-scaling-stroke" class="st2" d="M-226.9-210.5c-8.4,3.6-15.9,8.6-22.3,15.1
				c-6.5,6.5-11.5,13.9-15.1,22.3c-3.7,8.7-5.5,17.8-5.5,27.4s1.8,18.7,5.5,27.4c3.6,8.4,8.6,15.9,15.1,22.3
				c6.5,6.5,13.9,11.5,22.3,15.1c8.7,3.7,17.8,5.5,27.4,5.5s18.7-1.8,27.4-5.5c8.4-3.6,15.9-8.6,22.3-15.1
				c6.5-6.5,11.5-13.9,15.1-22.3c3.7-8.7,5.5-17.8,5.5-27.4s-1.8-18.7-5.5-27.4c-3.6-8.4-8.6-15.9-15.1-22.3
				c-6.5-6.5-13.9-11.5-22.3-15.1c-8.7-3.7-17.8-5.5-27.4-5.5S-218.2-214.2-226.9-210.5z M-224.8-86c-7.8-3.3-14.6-7.9-20.6-13.9
				c-6-6-10.6-12.9-13.9-20.6c-3.4-8-5.1-16.5-5.1-25.3c0-8.8,1.7-17.2,5.1-25.3c3.3-7.8,7.9-14.6,13.9-20.6
				c6-6,12.9-10.6,20.6-13.9c8-3.4,16.5-5.1,25.3-5.1s17.2,1.7,25.3,5.1c7.8,3.3,14.6,7.9,20.6,13.9c6,6,10.6,12.9,13.9,20.6
				c3.4,8,5.1,16.5,5.1,25.3c0,8.8-1.7,17.2-5.1,25.3c-3.3,7.8-7.9,14.6-13.9,20.6c-6,6-12.9,10.6-20.6,13.9
				c-8,3.4-16.5,5.1-25.3,5.1S-216.8-82.6-224.8-86z"/>
		</g>
		<g transform="matrix(1 0 0 1 8.58 -49.42)">
			<path vector-effect="non-scaling-stroke" class="st3" d="M-210.9-109c0,6.7-8.7,6.4-8.7,0v-43.5c0-2.6,1.3-4.7,3.9-4.7
				c1.8,0,3.4,0,5.1-0.1c5.6-0.1,10.7-0.2,16.8,1c16.5,3.4,27.1,16.2,27.1,30.8c0,26.6-14.4,37.7-56.5,35.4c-9-1.3-9-3.8-9-5.1
				c0,0,0,0,0-0.1v-101.7c0-5.1,5.6-5,10.4-5.1c45.9-1.6,38.3,26,32.4,37.4c-2.6,4.8-10.9,2.2-8.8-2.9c7.9-9.9,7.1-29.5-25.7-25.2
				v93.2c30,5.6,48.8-5.9,48.8-26c0-15.6-20.4-23.6-34.3-23.6h-1.4V-109z"/>
		</g>
	</g>
</g>
</svg>
